<?xml version="1.0" encoding="utf-8"?>
<!-- Generator: Adobe Illustrator 23.0.6, SVG Export Plug-In . SVG Version: 6.00 Build 0)  -->
<svg version="1.1" id="Layer_1" xmlns="http://www.w3.org/2000/svg" xmlns:xlink="http://www.w3.org/1999/xlink" x="0px" y="0px"
	 viewBox="0 0 772.8 670.9" style="enable-background:new 0 0 772.8 670.9;" xml:space="preserve">
<style type="text/css">
	.st0{fill:#FFFFFF;}
</style>
<title>Artboard 1</title>
<g id="Layer_1_1_">
	<path class="st0" d="M517.1,670.9c0,0-19.3-80.6-37-98.7s-104.9-46-104.9-46s77.3-23,95.2-40.5c18.3-17.9,49.5-101.4,49.5-101.4
		s33.1,82.4,51.3,100.9c17.3,17.7,90.6,43.8,90.6,43.8s-84.9,25.2-104,44C540.7,589.7,517.1,670.9,517.1,670.9z"/>
</g>
<g id="Layer_2">
	<path class="st0" d="M590.9,360.3c0,0-24.2-101.3-46.5-124.1s-131.9-57.8-131.9-57.8s97.1-28.8,119.7-50.9
		C555.1,105,594.4,0,594.4,0s41.7,103.6,64.5,126.8c21.8,22.2,113.9,55,113.9,55s-106.7,31.8-130.7,55.3
		C620.6,258.2,590.9,360.3,590.9,360.3z"/>
</g>
<g id="Layer_3">
	<path class="st0" d="M266.7,614c0,0-36.2-151.5-69.6-185.5S0,342.1,0,342.1S145.2,299,178.9,266c34.3-33.6,93-190.6,93-190.6
		s62.3,154.8,96.4,189.6c32.6,33.2,170.3,82.3,170.3,82.3S379,394.7,343.2,429.9C311.1,461.4,266.7,614,266.7,614z"/>
</g>
</svg>
