<svg xmlns="http://www.w3.org/2000/svg" viewBox="0 0 772.82 670.88"><defs><style>.cls-1{fill:#231f20;}</style></defs><title>Artboard 1</title><g id="Layer_1" data-name="Layer 1"><path class="cls-1" d="M517.1,670.88s-19.27-80.64-37-98.74-104.93-46-104.93-46,77.28-22.95,95.2-40.53c18.26-17.9,49.51-101.43,49.51-101.43S553,466.63,571.17,485.13c17.33,17.68,90.64,43.79,90.64,43.79s-84.91,25.25-104,44C540.72,589.66,517.1,670.88,517.1,670.88Z"/></g><g id="Layer_2" data-name="Layer 2"><path class="cls-1" d="M590.93,360.31S566.71,259,544.39,236.21s-131.88-57.79-131.88-57.79,97.13-28.83,119.66-50.93C555.11,105,594.4,0,594.4,0s41.68,103.59,64.49,126.85c21.8,22.21,113.93,55,113.93,55S666.1,213.62,642.11,237.16C620.63,258.22,590.93,360.31,590.93,360.31Z"/></g><g id="Layer_3" data-name="Layer 3"><path class="cls-1" d="M266.69,614s-36.2-151.49-69.57-185.5S0,342.09,0,342.09,145.18,299,178.85,266c34.3-33.64,93-190.56,93-190.56s62.3,154.84,96.4,189.6c32.58,33.21,170.28,82.27,170.28,82.27s-159.5,47.43-195.37,82.61C311.08,461.37,266.69,614,266.69,614Z"/></g></svg>