<svg id="Layer_1" data-name="Layer 1" xmlns="http://www.w3.org/2000/svg" viewBox="0 0 480 319.92" style=""><defs><style>.cls-1{fill:none;stroke:#fff;stroke-miterlimit:10;}</style></defs><title>Artboard 1</title><path class="cls-1 AqMnXYuA_0" d="M168.53,282.45s-2.65-63.38,7.56-83.45,35.71-35.9,38.43-39,8.51-16.4,3.07-25.25a153.42,153.42,0,0,0-13.61-18s-11.23-18.71-6.8-31,18.27-31.18,34.46-30,35,12,36.21,23.67a59.68,59.68,0,0,1-2.09,23c-.7,2.44,1.34,61.45,2.41,63.36s12,11.32,11.52,13.06-12.88-7.66-12.88-7.66-6.27-2.09-5.4-14.8,1.57-37.77.87-40.73,0-18.28-3.13-21.24S246.79,81.18,240,81.18s-16.71,0-22.63,5.75-12.54,14.62-12.36,36.9,1.39,39.34-1,42-24.19,25.07-24.19,25.07,19-19.5,20-26.81-1.4-50,1.74-62.14,7.31-22.81,11.83-25.24,15.84-6.27,23.85-4.88,20.2,4.35,22.28,9.23,5.92,13,6.1,17.23S258.8,114.08,253.92,123s-9.57,13.06-8.35,19.84-1.11,14,11.58,22.31,23.23,8.74,31.43,30.61,13.66,68.25,11.2,86.73"></path><path class="cls-1 AqMnXYuA_1" d="M221.77,125.67s6,6.09,11.24,5.74,11.48-3.71,12.19-4.19-5.52-6.49-10.9-5.87-12.42,3-12.13,3.75,21.8,1.26,21.8,1.26"></path><path class="cls-1 AqMnXYuA_2" d="M295.43,283.71l.85-28.53s-4,2.13-4.47,0-2.55-28.53-2.55-28.53,3.19,3,3.51,0-5.64-28.11-5.64-28.11-3.41,2.13-3.84,0-9.79-20.23-9.79-20.23"></path><path class="cls-1 AqMnXYuA_3" d="M259,169.08l11.29,16.26s2.13-2.13,3.19-.85,7.88,25.33,7.88,25.33-4.26-1.06-3.62,1.71,3.62,27.68,3.62,27.68,2.34-2.34,3.51,0,1.39,27.47,1.39,27.47.63.21-2.13,0-1.28,19.16-1.28,19.16"></path><path class="cls-1 AqMnXYuA_4" d="M273.5,286.9V257.52s-3.19,2.34-4.05,0-1.91-30.06-1.91-30.06,3.83,2.09,4,0-2.76-29.13-2.76-29.13-4.05,2.55-4.69,0-6.39-21.51-6.39-21.51"></path><path class="cls-1 AqMnXYuA_5" d="M244.12,169.08l3.62,15.19s.85,1.49,3,0,4.68,26.41,4.68,26.41a18,18,0,0,0-3.62,0c-1.49.21.64,28.74.64,28.74s5.54-2.13,5.32.64,0,28.32,0,28.32-5.12-2.34-4.48,1.06,1.49,19.17,1.49,19.17"></path><path class="cls-1 AqMnXYuA_6" d="M240,288.61l1.13-29.6s-4.68-2.34-5.74-1.06-1.09-30.49-1.09-30.49,3.43,1.67,4.71,0,1-29.13,1-29.13-5.72,2.13-5.7,0S233,175.76,233,175.76"></path><path class="cls-1 AqMnXYuA_7" d="M222.82,167.24l-3.4,16.18s4.25-1.06,4.25,1.92-2.12,24.27-2.12,24.27-3.84-3.62-4.05,0-1.06,29.6-1.06,29.6,4.89-1.92,4.89,0-.21,29.38-.21,29.38-4.05-1.06-4.68,1.28,0,18.74,0,18.74"></path><path class="cls-1 AqMnXYuA_8" d="M204.3,288.61l1.06-30.45s-3.4,3.83-3.83,0-1.06-30.24-1.06-30.24,4.68,3,4.89,0,2.56-28.32,2.56-28.32-5.75,3.2-5.32,0S209,175.76,209,175.76"></path><path class="cls-1 AqMnXYuA_9" d="M206.43,167.24l-9.8,17.25s1.28,1.91,2.77,1.7-5.75,25.55-5.75,25.55-4.26.43-4.26-.85-3.19,27.89-3.19,27.89,3.19,2.34,4.26,1.07,0,28.53,0,28.53-2.13,1.7-3.2,0-.21,18.52-.21,18.52"></path><path class="cls-1 AqMnXYuA_10" d="M179.6,285.84V257.73s-5.11,3.2-5.11,0,1.7-30.27,1.7-30.27,3.83,3.37,4.26,0,5.75-26.58,5.75-26.58-4-.42-3.83-1.91,5.32-13.21,5.32-13.21"></path><path class="cls-1 AqMnXYuA_11" d="M228.12,109.48s-4.9,1.79-4.45,4,2.3,4.63,4.45,4.51-2.06-.35-1.36-1.63,4.8-2.11,5.5-1.52,2.69-1.37,3.74-1.1,6,.86,4,2.62-1.14,2.57,0,2.57,3.6-.35,3.83-2.22,2.23-4.91-1.05-6.08a16.15,16.15,0,0,0-3.86-1.14"></path><style data-made-with="vivus-instant">.AqMnXYuA_0{stroke-dasharray:1082 1084;stroke-dashoffset:1083;animation:AqMnXYuA_draw 2000ms linear 0ms forwards;}.AqMnXYuA_1{stroke-dasharray:74 76;stroke-dashoffset:75;animation:AqMnXYuA_draw 2000ms linear 90ms forwards;}.AqMnXYuA_2{stroke-dasharray:123 125;stroke-dashoffset:124;animation:AqMnXYuA_draw 2000ms linear 181ms forwards;}.AqMnXYuA_3{stroke-dasharray:137 139;stroke-dashoffset:138;animation:AqMnXYuA_draw 2000ms linear 272ms forwards;}.AqMnXYuA_4{stroke-dasharray:127 129;stroke-dashoffset:128;animation:AqMnXYuA_draw 2000ms linear 363ms forwards;}.AqMnXYuA_5{stroke-dasharray:139 141;stroke-dashoffset:140;animation:AqMnXYuA_draw 2000ms linear 454ms forwards;}.AqMnXYuA_6{stroke-dasharray:130 132;stroke-dashoffset:131;animation:AqMnXYuA_draw 2000ms linear 545ms forwards;}.AqMnXYuA_7{stroke-dasharray:141 143;stroke-dashoffset:142;animation:AqMnXYuA_draw 2000ms linear 636ms forwards;}.AqMnXYuA_8{stroke-dasharray:132 134;stroke-dashoffset:133;animation:AqMnXYuA_draw 2000ms linear 727ms forwards;}.AqMnXYuA_9{stroke-dasharray:139 141;stroke-dashoffset:140;animation:AqMnXYuA_draw 2000ms linear 818ms forwards;}.AqMnXYuA_10{stroke-dasharray:117 119;stroke-dashoffset:118;animation:AqMnXYuA_draw 2000ms linear 909ms forwards;}.AqMnXYuA_11{stroke-dasharray:53 55;stroke-dashoffset:54;animation:AqMnXYuA_draw 2000ms linear 1000ms forwards;}@keyframes AqMnXYuA_draw{100%{stroke-dashoffset:0;}}@keyframes AqMnXYuA_fade{0%{stroke-opacity:1;}94.44444444444444%{stroke-opacity:1;}100%{stroke-opacity:0;}}</style></svg>