<?xml version="1.0" encoding="utf-8"?>
<!-- Generator: Adobe Illustrator 23.0.6, SVG Export Plug-In . SVG Version: 6.00 Build 0)  -->
<svg version="1.1" id="Layer_1" xmlns="http://www.w3.org/2000/svg" xmlns:xlink="http://www.w3.org/1999/xlink" x="0px" y="0px"
	 viewBox="0 0 800 800" style="enable-background:new 0 0 800 800;" xml:space="preserve">
<style type="text/css">
	.st0{fill:#D46DAA;stroke:#FFFFFF;stroke-miterlimit:10;}
	.st1{fill:#F15A29;stroke:#FFFFFF;stroke-miterlimit:10;}
	.st2{fill:#726658;stroke:#FFFFFF;stroke-miterlimit:10;}
	.st3{fill:#FBB040;stroke:#FFFFFF;stroke-miterlimit:10;}
	.st4{fill:#3C2415;stroke:#FFFFFF;stroke-miterlimit:10;}
	.st5{fill:#1B75BC;stroke:#FFFFFF;stroke-miterlimit:10;}
	.st6{fill:#7F3F98;stroke:#FFFFFF;stroke-miterlimit:10;}
	.st7{fill:#EF4136;stroke:#FFFFFF;stroke-miterlimit:10;}
	.st8{fill:#39B54A;stroke:#FFFFFF;stroke-miterlimit:10;}
	.st9{fill:#662D91;stroke:#FFFFFF;stroke-miterlimit:10;}
</style>
<title>Artboard 1</title>
<path class="st0" d="M11.2,25.1c-0.1,0-0.2,0-0.2,0c-0.3,21-0.6,42-0.9,63.1c-1.5,95.5-3.2,191-2,286.5l132.7,399.2
	c19.5,1.1,39.1,2.1,58.6,3c20.9,1,41.8,1.9,62.7,2.7L11.2,25.1z"/>
<path class="st1" d="M7.9,370.6c0.1,11.8,0.3,23.5,0.5,35.3c1.9,98.8,8,197.1,20.3,295.1c3.1,22,6.4,44.1,9.7,66.1
	c34.5,2.7,69,5,103.6,6.9L7.9,370.6z"/>
<path class="st2" d="M128.8,22.2c-39.3,1-78.6,2-117.9,2.9c0,0.5,0,1,0,1.5l190.4,572.8l107.5-35.7L128.8,22.2z"/>
<path class="st3" d="M383.2,783.5l-72.9-219.3L202.8,600l59.7,179.6C302.7,781.1,342.9,782.4,383.2,783.5z"/>
<path class="st4" d="M150.5,21.6c-7.6,0.2-15.3,0.4-22.9,0.6l253.1,761.2c40.1,1.1,80.3,2.1,120.4,3.1L246,19
	C214.2,19.9,182.3,20.8,150.5,21.6z"/>
<path class="st5" d="M247,19l255.2,767.6c7.9,0.2,15.7,0.4,23.6,0.6c32.2,0.8,64.5,1.6,96.7,2.4L365.3,15.7
	C325.9,16.8,286.5,17.9,247,19z"/>
<path class="st6" d="M743.5,793.3L548.2,206.1l-107.5,35.7l182.1,547.7C663.1,790.6,703.3,791.8,743.5,793.3z"/>
<path class="st7" d="M365.6,15.6l76,228.7l107.5-35.7L483.9,12.4C444.4,13.5,405,14.5,365.6,15.6z"/>
<path class="st8" d="M603.8,9.5c-39.5,0.9-78.9,1.9-118.4,2.9L745,793.3c6.2,0.2,12.5,0.5,18.7,0.7c-0.1-41-0.2-81.9-0.3-122.9
	c-0.1-59.6,0.1-119.2,0.9-178.8L603.8,9.5z"/>
<path class="st3" d="M687,7.7c-27.2,0.5-54.4,1.1-81.5,1.7l159,478.2c0.7-49.4,1.9-98.7,3.9-148.1c2.2-55.2,5.4-110.4,10-165.5
	c0.1-1,0.2-1.9,0.2-2.9L724,7C711.7,7.3,699.3,7.5,687,7.7z"/>
<path class="st9" d="M791.7,20.9c0-5.1,0.3-10,0.7-15c-22.4,0.3-44.9,0.7-67.3,1l53.7,161.6c2.7-31.5,5.9-63,9.6-94.4
	C789.1,56.4,790.1,38.7,791.7,20.9z"/>
</svg>
