<svg id="Layer_1" data-name="Layer 1" xmlns="http://www.w3.org/2000/svg" xmlns:xlink="http://www.w3.org/1999/xlink" viewBox="0 0 800 800"><defs><style>.cls-1{fill:none;}.cls-2{clip-path:url(#clip-path);}.cls-3{fill:#f15a29;}.cls-10,.cls-11,.cls-12,.cls-13,.cls-15,.cls-16,.cls-3,.cls-4,.cls-5,.cls-6,.cls-7,.cls-8,.cls-9{stroke:#fff;stroke-miterlimit:10;}.cls-4{fill:#1b75bc;}.cls-5{fill:#39b54a;}.cls-6{fill:#f7941d;}.cls-7{fill:#8f6fb1;}.cls-8{fill:#8d5fa7;}.cls-9{fill:#fec140;}.cls-10{fill:#f49cc3;}.cls-11{fill:#9b8579;}.cls-12{fill:#f27693;}.cls-13{fill:#3c2415;}.cls-14{clip-path:url(#clip-path-2);}.cls-15{fill:#ef4136;}.cls-16{fill:#92278f;}.cls-17{clip-path:url(#clip-path-3);}.cls-18{clip-path:url(#clip-path-4);}</style><clipPath id="clip-path"><rect class="cls-1" x="400" y="-82.62" width="520.98" height="482.62"/></clipPath><clipPath id="clip-path-2"><rect class="cls-1" x="-101.8" y="-101.8" width="520.98" height="482.62" transform="translate(19.18 298.2) rotate(-90)"/></clipPath><clipPath id="clip-path-3"><rect class="cls-1" x="-121.38" y="400.72" width="520.98" height="482.62" transform="translate(277.35 1284.26) rotate(-179.92)"/></clipPath><clipPath id="clip-path-4"><rect class="cls-1" x="381.18" y="420.58" width="520.98" height="482.62" transform="translate(1304.43 21.13) rotate(90.08)"/></clipPath></defs><title>Artboard 1</title><g class="cls-2"><circle class="cls-3" cx="400" cy="400" r="392.5"/><circle class="cls-4" cx="400" cy="400" r="358.7"/><circle class="cls-5" cx="400" cy="400" r="322.5"/><circle class="cls-6" cx="400" cy="400" r="287.5"/><circle class="cls-7" cx="400" cy="400" r="147.5"/><circle class="cls-8" cx="400" cy="399" r="252.5"/><circle class="cls-9" cx="400" cy="399" r="217.5"/><circle class="cls-10" cx="400" cy="400" r="182.5"/><circle class="cls-11" cx="400" cy="400" r="147.5"/><circle class="cls-12" cx="400" cy="400" r="112.5"/><circle class="cls-13" cx="400" cy="400" r="77.5"/></g><g class="cls-14"><circle class="cls-15" cx="400" cy="400" r="392.5"/><circle class="cls-6" cx="400" cy="400" r="358.7"/><circle class="cls-13" cx="400" cy="400" r="322.5"/><circle class="cls-3" cx="400" cy="400" r="287.5"/><circle class="cls-7" cx="400" cy="400" r="147.5"/><circle class="cls-5" cx="399" cy="400" r="252.5"/><circle class="cls-4" cx="399" cy="400" r="217.5"/><circle class="cls-12" cx="400" cy="400" r="182.5"/><circle class="cls-16" cx="400" cy="400" r="147.5"/><circle class="cls-12" cx="400" cy="400" r="112.5"/><circle class="cls-11" cx="400" cy="400" r="77.5"/></g><g class="cls-17"><circle class="cls-3" cx="399.93" cy="401.08" r="392.5"/><circle class="cls-4" cx="399.93" cy="401.08" r="358.7"/><circle class="cls-5" cx="399.93" cy="401.08" r="322.5"/><circle class="cls-6" cx="399.93" cy="401.08" r="287.5"/><circle class="cls-7" cx="399.93" cy="401.08" r="147.5"/><circle class="cls-8" cx="399.93" cy="402.08" r="252.5"/><circle class="cls-9" cx="399.93" cy="402.08" r="217.5"/><circle class="cls-10" cx="399.93" cy="401.08" r="182.5"/><circle class="cls-11" cx="399.93" cy="401.08" r="147.5"/><circle class="cls-12" cx="399.93" cy="401.08" r="112.5"/><circle class="cls-13" cx="399.93" cy="401.08" r="77.5"/></g><g class="cls-18"><circle class="cls-15" cx="400.71" cy="401.08" r="392.5"/><circle class="cls-6" cx="400.71" cy="401.08" r="358.7"/><circle class="cls-13" cx="400.71" cy="401.08" r="322.5"/><circle class="cls-3" cx="400.71" cy="401.08" r="287.5"/><circle class="cls-7" cx="400.71" cy="401.08" r="147.5"/><circle class="cls-5" cx="401.71" cy="401.08" r="252.5"/><circle class="cls-4" cx="401.71" cy="401.08" r="217.5"/><circle class="cls-12" cx="400.71" cy="401.08" r="182.5"/><circle class="cls-16" cx="400.71" cy="401.08" r="147.5"/><circle class="cls-12" cx="400.71" cy="401.08" r="112.5"/><circle class="cls-11" cx="400.71" cy="401.08" r="77.5"/></g></svg>